<svg width="438" height="328" viewBox="0 0 438 328" fill="none" xmlns="http://www.w3.org/2000/svg">
<path d="M145.734 13.6405C189.315 40.7457 200.571 126.341 200.571 126.341C200.571 126.341 69.1816 151.607 27.6067 102.056C3.62487 73.4734 3.28411 12.5548 3.28411 12.5548C3.28411 12.5548 99.7473 -14.9608 145.734 13.6405Z" fill="#59E031"/>
<path d="M146.468 16.4284C191.529 44.4115 203.906 133.786 203.906 133.786C203.906 133.786 69.0572 161.24 25.8474 109.781C0.922516 80.0976 0.000213623 16.4284 0.000213623 16.4284C0.000213623 16.4284 98.9189 -13.0992 146.468 16.4284Z" fill="#6EE014"/>
<path d="M202.51 133.447C162.008 91.342 120.109 73.4795 81.004 64.5482" stroke="#B4F077" stroke-width="0.677049"/>
<path d="M242.525 57.0212C198.944 84.1263 187.688 169.722 187.688 169.722C187.688 169.722 319.077 194.988 360.652 145.437C384.634 116.854 384.975 55.9355 384.975 55.9355C384.975 55.9355 288.512 28.4199 242.525 57.0212Z" fill="#11C869"/>
<path d="M242.525 67.2283C198.944 94.3335 187.688 179.929 187.688 179.929C187.688 179.929 319.077 205.195 360.652 155.644C384.634 127.061 384.975 66.1426 384.975 66.1426C384.975 66.1426 288.512 38.627 242.525 67.2283Z" fill="#06B85B"/>
<path d="M241.791 59.8089C196.73 87.7919 184.353 177.166 184.353 177.166C184.353 177.166 319.202 204.621 362.412 153.161C387.337 123.478 388.259 59.8089 388.259 59.8089C388.259 59.8089 289.34 30.2812 241.791 59.8089Z" fill="#22E07E"/>
<path d="M185.75 176.827C226.251 134.723 268.15 116.86 307.255 107.929" stroke="#61FFAE" stroke-width="0.677049"/>
<path d="M1.152 305L33.024 231.56H33.792L65.664 305H49.536L29.184 253.352L39.264 246.44L14.88 305H1.152ZM22.944 279.464H44.16L49.056 291.176H18.624L22.944 279.464ZM94.0455 326.12C90.2695 326.12 87.0695 325.672 84.4455 324.776C81.8855 323.88 79.7095 322.792 77.9175 321.512C76.1255 320.232 74.5255 319.016 73.1175 317.864L80.9895 308.648C82.4615 309.992 84.1575 311.272 86.0775 312.488C88.0615 313.768 90.6535 314.408 93.8535 314.408C97.0535 314.408 99.8375 313.576 102.206 311.912C104.638 310.312 105.854 307.944 105.854 304.808V295.592L106.334 297.992C105.31 300.168 103.454 302.088 100.766 303.752C98.0775 305.352 94.5575 306.152 90.2055 306.152C86.4295 306.152 82.9095 305.192 79.6455 303.272C76.4455 301.288 73.8855 298.632 71.9655 295.304C70.0455 291.912 69.0855 288.072 69.0855 283.784C69.0855 279.368 70.1095 275.464 72.1575 272.072C74.2055 268.616 76.8615 265.896 80.1255 263.912C83.3895 261.928 86.8455 260.936 90.4935 260.936C94.1415 260.936 97.2775 261.48 99.9015 262.568C102.59 263.592 104.606 264.872 105.95 266.408L105.47 267.656L106.91 263.048H119.294V305C119.294 309.096 118.142 312.712 115.838 315.848C113.534 319.048 110.462 321.544 106.622 323.336C102.846 325.192 98.6535 326.12 94.0455 326.12ZM82.6215 283.4C82.6215 285.64 83.1335 287.656 84.1575 289.448C85.1815 291.24 86.5575 292.648 88.2855 293.672C90.0775 294.696 92.0615 295.208 94.2375 295.208C96.9895 295.208 99.2935 294.696 101.15 293.672C103.07 292.584 104.638 290.984 105.854 288.872V278.6C104.958 276.552 103.486 274.92 101.438 273.704C99.3895 272.488 96.9895 271.88 94.2375 271.88C92.0615 271.88 90.0775 272.392 88.2855 273.416C86.5575 274.376 85.1815 275.72 84.1575 277.448C83.1335 279.176 82.6215 281.16 82.6215 283.4ZM145.196 263.048L146.444 274.568L146.156 272.84C147.372 270.344 149.036 268.232 151.148 266.504C153.26 264.712 155.34 263.336 157.388 262.376C159.5 261.416 161.1 260.936 162.188 260.936L161.516 274.376C158.38 273.992 155.692 274.504 153.452 275.912C151.212 277.32 149.484 279.176 148.268 281.48C147.052 283.784 146.444 286.152 146.444 288.584V305H133.1V263.048H145.196ZM167.336 283.496C167.336 279.208 168.328 275.368 170.312 271.976C172.36 268.584 175.208 265.928 178.856 264.008C182.504 262.024 186.696 261.032 191.432 261.032C196.232 261.032 200.392 262.024 203.912 264.008C207.432 265.928 210.12 268.584 211.976 271.976C213.896 275.368 214.856 279.208 214.856 283.496C214.856 287.784 213.896 291.656 211.976 295.112C210.12 298.504 207.432 301.192 203.912 303.176C200.392 305.16 196.168 306.152 191.24 306.152C186.632 306.152 182.504 305.256 178.856 303.464C175.272 301.672 172.456 299.08 170.408 295.688C168.36 292.296 167.336 288.232 167.336 283.496ZM180.872 283.592C180.872 285.768 181.32 287.752 182.216 289.544C183.112 291.272 184.328 292.648 185.864 293.672C187.4 294.696 189.128 295.208 191.048 295.208C194.184 295.208 196.68 294.12 198.536 291.944C200.392 289.704 201.32 286.92 201.32 283.592C201.32 280.264 200.392 277.512 198.536 275.336C196.68 273.096 194.184 271.976 191.048 271.976C189.128 271.976 187.4 272.488 185.864 273.512C184.328 274.536 183.112 275.912 182.216 277.64C181.32 279.368 180.872 281.352 180.872 283.592ZM222.851 234.344H270.467V247.784H253.283V305H239.363V247.784H222.851V234.344ZM292.677 306.152C287.557 306.152 283.205 305.192 279.621 303.272C276.101 301.352 273.413 298.696 271.557 295.304C269.701 291.912 268.773 288.008 268.773 283.592C268.773 279.368 269.861 275.56 272.037 272.168C274.213 268.776 277.125 266.088 280.773 264.104C284.421 262.056 288.485 261.032 292.965 261.032C298.981 261.032 303.909 262.792 307.749 266.312C311.653 269.768 314.181 274.792 315.333 281.384L282.693 291.752L279.717 284.456L303.333 276.488L300.549 277.736C300.037 276.072 299.109 274.632 297.765 273.416C296.485 272.136 294.533 271.496 291.909 271.496C288.901 271.496 286.501 272.52 284.709 274.568C282.917 276.616 282.021 279.368 282.021 282.824C282.021 286.728 283.077 289.704 285.189 291.752C287.301 293.736 289.893 294.728 292.965 294.728C294.437 294.728 295.845 294.472 297.189 293.96C298.597 293.448 299.973 292.776 301.317 291.944L307.269 301.928C305.029 303.208 302.597 304.232 299.973 305C297.413 305.768 294.981 306.152 292.677 306.152ZM360.716 301.256C358.86 302.728 356.524 303.912 353.708 304.808C350.956 305.704 348.236 306.152 345.548 306.152C340.748 306.152 336.556 305.288 332.972 303.56C329.452 301.768 326.7 299.24 324.716 295.976C322.796 292.648 321.836 288.648 321.836 283.976C321.836 279.304 322.892 275.336 325.004 272.072C327.116 268.744 329.868 266.216 333.26 264.488C336.716 262.76 340.332 261.896 344.108 261.896C347.884 261.896 351.148 262.408 353.9 263.432C356.716 264.456 359.116 265.8 361.1 267.464L354.572 276.104C353.676 275.4 352.428 274.696 350.828 273.992C349.292 273.224 347.468 272.84 345.356 272.84C343.5 272.84 341.804 273.32 340.268 274.28C338.732 275.24 337.516 276.552 336.62 278.216C335.724 279.88 335.276 281.8 335.276 283.976C335.276 286.024 335.756 287.912 336.716 289.64C337.676 291.368 338.988 292.744 340.652 293.768C342.38 294.728 344.396 295.208 346.7 295.208C348.172 295.208 349.516 295.016 350.732 294.632C352.012 294.184 353.1 293.576 353.996 292.808L360.716 301.256ZM371.037 305V229.256H384.189V271.496L384.093 269.864C385.565 267.24 387.645 265.128 390.333 263.528C393.021 261.864 396.317 261.032 400.221 261.032C404.189 261.032 407.485 262.216 410.109 264.584C412.797 266.888 414.173 269.896 414.237 273.608V305H400.797V278.6C400.733 276.744 400.221 275.272 399.261 274.184C398.365 273.032 396.829 272.456 394.653 272.456C391.517 272.456 389.021 273.928 387.165 276.872C385.373 279.752 384.477 283.432 384.477 287.912V305H371.037Z" fill="url(#paint0_linear_4_405)"/>
<defs>
<linearGradient id="paint0_linear_4_405" x1="12.4747" y1="236.028" x2="434.367" y2="314.169" gradientUnits="userSpaceOnUse">
<stop stop-color="#63C700"/>
<stop offset="0.154167" stop-color="#6FD50A"/>
<stop offset="0.294792" stop-color="#6DCF0B"/>
<stop offset="0.419792" stop-color="#6ED209"/>
<stop offset="0.570833" stop-color="#6ED805"/>
<stop offset="0.70625" stop-color="#72DC09"/>
<stop offset="0.841667" stop-color="#75E00A"/>
<stop offset="0.95625" stop-color="#71DF03"/>
<stop offset="1" stop-color="#76E903"/>
</linearGradient>
</defs>
</svg>
