<svg width="438" height="328" viewBox="0 0 438 328" fill="none" xmlns="http://www.w3.org/2000/svg">
<path d="M145.734 13.6405C189.315 40.7457 200.571 126.341 200.571 126.341C200.571 126.341 69.1816 151.607 27.6067 102.056C3.62487 73.4734 3.28411 12.5548 3.28411 12.5548C3.28411 12.5548 99.7473 -14.9608 145.734 13.6405Z" fill="#59E031"/>
<path d="M146.468 16.4284C191.529 44.4115 203.906 133.786 203.906 133.786C203.906 133.786 69.0572 161.24 25.8474 109.781C0.922516 80.0976 0.000213623 16.4284 0.000213623 16.4284C0.000213623 16.4284 98.9189 -13.0992 146.468 16.4284Z" fill="#6EE014"/>
<path d="M202.51 133.447C162.008 91.342 120.109 73.4795 81.004 64.5482" stroke="#B4F077" stroke-width="0.677049"/>
<path d="M242.525 57.0212C198.944 84.1263 187.688 169.722 187.688 169.722C187.688 169.722 319.077 194.988 360.652 145.437C384.634 116.854 384.975 55.9355 384.975 55.9355C384.975 55.9355 288.512 28.4199 242.525 57.0212Z" fill="#11C869"/>
<path d="M242.525 67.2283C198.944 94.3335 187.688 179.929 187.688 179.929C187.688 179.929 319.077 205.195 360.652 155.644C384.634 127.061 384.975 66.1426 384.975 66.1426C384.975 66.1426 288.512 38.627 242.525 67.2283Z" fill="#06B85B"/>
<path d="M241.791 59.8089C196.73 87.7919 184.353 177.166 184.353 177.166C184.353 177.166 319.202 204.621 362.412 153.161C387.337 123.478 388.259 59.8089 388.259 59.8089C388.259 59.8089 289.34 30.2812 241.791 59.8089Z" fill="#22E07E"/>
<path d="M185.75 176.827C226.251 134.723 268.15 116.86 307.255 107.929" stroke="#61FFAE" stroke-width="0.677049"/>
<defs>
<linearGradient id="paint0_linear_4_405" x1="12.4747" y1="236.028" x2="434.367" y2="314.169" gradientUnits="userSpaceOnUse">
<stop stop-color="#63C700"/>
<stop offset="0.154167" stop-color="#6FD50A"/>
<stop offset="0.294792" stop-color="#6DCF0B"/>
<stop offset="0.419792" stop-color="#6ED209"/>
<stop offset="0.570833" stop-color="#6ED805"/>
<stop offset="0.70625" stop-color="#72DC09"/>
<stop offset="0.841667" stop-color="#75E00A"/>
<stop offset="0.95625" stop-color="#71DF03"/>
<stop offset="1" stop-color="#76E903"/>
</linearGradient>
</defs>
</svg>
