<svg width="193" height="195" viewBox="0 0 193 195" fill="none" xmlns="http://www.w3.org/2000/svg">
<path d="M162.844 0C159.513 0 156.812 2.72826 156.812 6.09375C156.812 9.45924 159.513 12.1875 162.844 12.1875H180.938V45.7031H174.906C171.575 45.7031 168.875 48.4314 168.875 51.7969C168.875 55.1624 171.575 57.8906 174.906 57.8906H180.938V91.4062H162.844C159.513 91.4062 156.812 94.1345 156.812 97.5C156.812 100.865 159.513 103.594 162.844 103.594H180.938V137.109H174.906C171.575 137.109 168.875 139.838 168.875 143.203C168.875 146.569 171.575 149.297 174.906 149.297H180.938V182.812H162.844C159.513 182.812 156.812 185.541 156.812 188.906C156.812 192.272 159.513 195 162.844 195H186.969C190.3 195 193 192.272 193 188.906V6.09375C193 2.72826 190.3 0 186.969 0H162.844Z" fill="#F5F5F5"/>
<path d="M84.4375 18.2812L88.8231 14.098C87.6837 12.8786 86.0973 12.1875 84.4375 12.1875C82.7777 12.1875 81.1913 12.8786 80.0519 14.098L80.0423 14.1083L80.0223 14.1297L79.9515 14.206L79.6897 14.4899C79.4631 14.7367 79.1339 15.0973 78.7124 15.5648C77.8695 16.4998 76.6568 17.8629 75.1565 19.5985C72.1574 23.0678 68.0013 28.0343 63.3485 34.0501C54.0802 46.0333 42.6802 62.3854 34.5852 79.4769C28.5639 92.19 24.125 105.818 24.125 118.625C24.125 153.74 50.8054 182.812 84.4375 182.812C118.07 182.812 144.75 153.74 144.75 118.625C144.75 105.818 140.311 92.19 134.29 79.4769C126.195 62.3854 114.795 46.0333 105.527 34.0501C100.874 28.0343 96.7176 23.0678 93.7185 19.5985C92.2182 17.8629 91.0055 16.4998 90.1626 15.5648C89.7411 15.0973 89.4119 14.7367 89.1853 14.4899L88.9235 14.206L88.8527 14.1297L88.8327 14.1083C88.8327 14.1083 88.8231 14.098 84.4375 18.2812ZM84.4375 18.2812C80.0519 14.098 80.0519 14.098 80.0519 14.098L84.4375 18.2812ZM84.2417 27.6157L84.4375 27.3894L84.6333 27.6157C87.516 30.9503 91.5282 35.7443 96.0219 41.5545C103.39 51.0811 111.946 63.2022 118.951 76.0136H49.9244C56.9293 63.2022 65.4848 51.0811 72.8531 41.5545C77.3468 35.7443 81.359 30.9503 84.2417 27.6157ZM36.1875 118.625C36.1875 109.423 39.125 98.9761 43.8809 88.2011H124.994C129.75 98.9761 132.688 109.423 132.688 118.625C132.688 147.679 110.763 170.625 84.4375 170.625C58.1122 170.625 36.1875 147.679 36.1875 118.625Z" fill="#F5F5F5"/>
</svg>
