<svg width="173" height="192" viewBox="0 0 173 192" fill="none" xmlns="http://www.w3.org/2000/svg">
<g id="Vector">
<path d="M59.6551 150C59.6551 159.941 51.6426 168 41.7586 168C31.8746 168 23.8621 159.941 23.8621 150C23.8621 142.163 28.8421 135.495 35.7931 133.024V30C35.7931 26.6863 38.4639 24 41.7586 24C45.0533 24 47.7241 26.6863 47.7241 30V133.024C54.6751 135.495 59.6551 142.163 59.6551 150Z" fill="#F5F5F5"/>
<path d="M11.931 30C11.931 13.4315 25.2853 0 41.7586 0C58.2319 0 71.5862 13.4315 71.5862 30V120.606C78.96 128.176 83.5172 138.556 83.5172 150C83.5172 173.196 64.8212 192 41.7586 192C18.696 192 0 173.196 0 150C0 138.556 4.55719 128.176 11.931 120.606V30ZM41.7586 12C31.8746 12 23.8621 20.0589 23.8621 30V125.849L21.875 127.638C15.7633 133.139 11.931 141.116 11.931 150C11.931 166.569 25.2853 180 41.7586 180C58.2319 180 71.5862 166.569 71.5862 150C71.5862 141.116 67.7539 133.139 61.6422 127.638L59.6551 125.849V30C59.6551 20.0589 51.6426 12 41.7586 12Z" fill="#F5F5F5"/>
<path d="M101.414 24C104.708 24 107.379 26.6863 107.379 30V42C107.379 45.3137 104.708 48 101.414 48C98.1191 48 95.4482 45.3137 95.4482 42V30C95.4482 26.6863 98.1191 24 101.414 24ZM152.033 45.0882C154.362 47.4313 154.362 51.2303 152.033 53.5734L143.596 62.0587C141.267 64.4019 137.489 64.4019 135.16 62.0587C132.83 59.7156 132.83 55.9166 135.16 53.5734L143.596 45.0882C145.926 42.745 149.703 42.745 152.033 45.0882ZM95.4483 65.9999C95.4483 62.6861 98.1192 59.9999 101.414 59.9999C121.182 59.9999 137.207 76.1176 137.207 95.9999C137.207 115.882 121.182 132 101.414 132C98.1192 132 95.4483 129.314 95.4483 126C95.4483 122.686 98.1192 120 101.414 120C114.593 120 125.276 109.255 125.276 95.9999C125.276 82.745 114.593 71.9999 101.414 71.9999C98.1192 71.9999 95.4483 69.3136 95.4483 65.9999ZM149.138 95.9999C149.138 92.6862 151.809 89.9999 155.103 89.9999H167.035C170.329 89.9999 173 92.6862 173 95.9999C173 99.3136 170.329 102 167.035 102H155.103C151.809 102 149.138 99.3136 149.138 95.9999ZM135.16 129.941C137.49 127.598 141.267 127.598 143.596 129.941L152.033 138.426C154.363 140.769 154.363 144.568 152.033 146.912C149.703 149.255 145.926 149.255 143.596 146.912L135.16 138.426C132.83 136.083 132.83 132.284 135.16 129.941ZM101.414 144C104.708 144 107.379 146.686 107.379 150V162C107.379 165.314 104.708 168 101.414 168C98.1191 168 95.4482 165.314 95.4482 162V150C95.4482 146.686 98.1191 144 101.414 144Z" fill="#F5F5F5"/>
</g>
</svg>
