<svg width="117" height="95" viewBox="0 0 117 95" fill="none" xmlns="http://www.w3.org/2000/svg">
<path d="M40.7355 3.81282C52.9172 11.3892 56.0636 35.3149 56.0636 35.3149C56.0636 35.3149 19.3376 42.3771 7.71661 28.5267C1.01321 20.5373 0.917964 3.50935 0.917964 3.50935C0.917964 3.50935 27.8813 -4.18179 40.7355 3.81282Z" fill="#59E031"/>
<path d="M40.9406 4.59207C53.5362 12.4139 56.9957 37.3958 56.9957 37.3958C56.9957 37.3958 19.3028 45.0697 7.22482 30.6859C0.257824 22.3888 2.28882e-05 4.59207 2.28882e-05 4.59207C2.28882e-05 4.59207 27.6497 -3.66147 40.9406 4.59207Z" fill="#6EE014"/>
<path d="M56.6053 37.3009C45.2843 25.5319 33.5729 20.5389 22.6422 18.0425" stroke="#B4F077" stroke-width="0.677049"/>
<path d="M67.7905 15.9385C55.6087 23.5149 52.4624 47.4405 52.4624 47.4405C52.4624 47.4405 89.1883 54.5028 100.809 40.6523C107.513 32.6629 107.608 15.635 107.608 15.635C107.608 15.635 80.6446 7.94388 67.7905 15.9385Z" fill="#11C869"/>
<path d="M67.7905 18.7916C55.6087 26.368 52.4624 50.2936 52.4624 50.2936C52.4624 50.2936 89.1883 57.3558 100.809 43.5054C107.513 35.516 107.608 18.4881 107.608 18.4881C107.608 18.4881 80.6446 10.797 67.7905 18.7916Z" fill="#06B85B"/>
<path d="M67.5854 16.7177C54.9898 24.5395 51.5303 49.5214 51.5303 49.5214C51.5303 49.5214 89.2232 57.1954 101.301 42.8116C108.268 34.5145 108.526 16.7177 108.526 16.7177C108.526 16.7177 80.8763 8.4642 67.5854 16.7177Z" fill="#22E07E"/>
<path d="M51.9206 49.4266C63.2416 37.6576 74.9531 32.6646 85.8838 30.1682" stroke="#61FFAE" stroke-width="0.677049"/>
<defs>
<linearGradient id="paint0_linear_2_950" x1="3.32769" y1="66.9732" x2="116.749" y2="85.3627" gradientUnits="userSpaceOnUse">
<stop stop-color="#63C700"/>
<stop offset="0.154167" stop-color="#6FD50A"/>
<stop offset="0.294792" stop-color="#6DCF0B"/>
<stop offset="0.419792" stop-color="#6ED209"/>
<stop offset="0.570833" stop-color="#6ED805"/>
<stop offset="0.70625" stop-color="#72DC09"/>
<stop offset="0.841667" stop-color="#75E00A"/>
<stop offset="0.95625" stop-color="#71DF03"/>
<stop offset="1" stop-color="#76E903"/>
</linearGradient>
</defs>
</svg>
