<svg width="117" height="95" viewBox="0 0 117 95" fill="none" xmlns="http://www.w3.org/2000/svg">
<path d="M40.7355 3.81282C52.9172 11.3892 56.0636 35.3149 56.0636 35.3149C56.0636 35.3149 19.3376 42.3771 7.71661 28.5267C1.01321 20.5373 0.917964 3.50935 0.917964 3.50935C0.917964 3.50935 27.8813 -4.18179 40.7355 3.81282Z" fill="#59E031"/>
<path d="M40.9406 4.59207C53.5362 12.4139 56.9957 37.3958 56.9957 37.3958C56.9957 37.3958 19.3028 45.0697 7.22482 30.6859C0.257824 22.3888 2.28882e-05 4.59207 2.28882e-05 4.59207C2.28882e-05 4.59207 27.6497 -3.66147 40.9406 4.59207Z" fill="#6EE014"/>
<path d="M56.6053 37.3009C45.2843 25.5319 33.5729 20.5389 22.6422 18.0425" stroke="#B4F077" stroke-width="0.677049"/>
<path d="M67.7905 15.9385C55.6087 23.5149 52.4624 47.4405 52.4624 47.4405C52.4624 47.4405 89.1883 54.5028 100.809 40.6523C107.513 32.6629 107.608 15.635 107.608 15.635C107.608 15.635 80.6446 7.94388 67.7905 15.9385Z" fill="#11C869"/>
<path d="M67.7905 18.7916C55.6087 26.368 52.4624 50.2936 52.4624 50.2936C52.4624 50.2936 89.1883 57.3558 100.809 43.5054C107.513 35.516 107.608 18.4881 107.608 18.4881C107.608 18.4881 80.6446 10.797 67.7905 18.7916Z" fill="#06B85B"/>
<path d="M67.5854 16.7177C54.9898 24.5395 51.5303 49.5214 51.5303 49.5214C51.5303 49.5214 89.2232 57.1954 101.301 42.8116C108.268 34.5145 108.526 16.7177 108.526 16.7177C108.526 16.7177 80.8763 8.4642 67.5854 16.7177Z" fill="#22E07E"/>
<path d="M51.9206 49.4266C63.2416 37.6576 74.9531 32.6646 85.8838 30.1682" stroke="#61FFAE" stroke-width="0.677049"/>
<path d="M0.24 77.6897L6.88 62.3897H7.04L13.68 77.6897H10.32L6.08 66.9297L8.18 65.4897L3.1 77.6897H0.24ZM4.78 72.3697H9.2L10.22 74.8097H3.88L4.78 72.3697ZM19.5928 82.0897C18.8061 82.0897 18.1395 81.9963 17.5928 81.8097C17.0595 81.623 16.6061 81.3963 16.2328 81.1297C15.8595 80.863 15.5261 80.6097 15.2328 80.3697L16.8728 78.4497C17.1795 78.7297 17.5328 78.9963 17.9328 79.2497C18.3461 79.5163 18.8861 79.6497 19.5528 79.6497C20.2195 79.6497 20.7995 79.4763 21.2928 79.1297C21.7995 78.7963 22.0528 78.303 22.0528 77.6497V75.7297L22.1528 76.2297C21.9395 76.683 21.5528 77.083 20.9928 77.4297C20.4328 77.763 19.6995 77.9297 18.7928 77.9297C18.0061 77.9297 17.2728 77.7297 16.5928 77.3297C15.9261 76.9163 15.3928 76.363 14.9928 75.6697C14.5928 74.963 14.3928 74.163 14.3928 73.2697C14.3928 72.3497 14.6061 71.5363 15.0328 70.8297C15.4595 70.1097 16.0128 69.543 16.6928 69.1297C17.3728 68.7163 18.0928 68.5097 18.8528 68.5097C19.6128 68.5097 20.2661 68.623 20.8128 68.8497C21.3728 69.063 21.7928 69.3297 22.0728 69.6497L21.9728 69.9097L22.2728 68.9497H24.8528V77.6897C24.8528 78.543 24.6128 79.2963 24.1328 79.9497C23.6528 80.6163 23.0128 81.1363 22.2128 81.5097C21.4261 81.8963 20.5528 82.0897 19.5928 82.0897ZM17.2128 73.1897C17.2128 73.6563 17.3195 74.0763 17.5328 74.4497C17.7461 74.823 18.0328 75.1163 18.3928 75.3297C18.7661 75.543 19.1795 75.6497 19.6328 75.6497C20.2061 75.6497 20.6861 75.543 21.0728 75.3297C21.4728 75.103 21.7995 74.7697 22.0528 74.3297V72.1897C21.8661 71.763 21.5595 71.423 21.1328 71.1697C20.7061 70.9163 20.2061 70.7897 19.6328 70.7897C19.1795 70.7897 18.7661 70.8963 18.3928 71.1097C18.0328 71.3097 17.7461 71.5897 17.5328 71.9497C17.3195 72.3097 17.2128 72.723 17.2128 73.1897ZM30.2491 68.9497L30.5091 71.3497L30.4491 70.9897C30.7024 70.4697 31.0491 70.0297 31.4891 69.6697C31.9291 69.2963 32.3624 69.0097 32.7891 68.8097C33.2291 68.6097 33.5624 68.5097 33.7891 68.5097L33.6491 71.3097C32.9957 71.2297 32.4357 71.3363 31.9691 71.6297C31.5024 71.923 31.1424 72.3097 30.8891 72.7897C30.6357 73.2697 30.5091 73.763 30.5091 74.2697V77.6897H27.7291V68.9497H30.2491ZM34.8616 73.2097C34.8616 72.3163 35.0682 71.5163 35.4816 70.8097C35.9082 70.103 36.5016 69.5497 37.2616 69.1497C38.0216 68.7363 38.8949 68.5297 39.8816 68.5297C40.8816 68.5297 41.7482 68.7363 42.4816 69.1497C43.2149 69.5497 43.7749 70.103 44.1616 70.8097C44.5616 71.5163 44.7616 72.3163 44.7616 73.2097C44.7616 74.103 44.5616 74.9097 44.1616 75.6297C43.7749 76.3363 43.2149 76.8963 42.4816 77.3097C41.7482 77.723 40.8682 77.9297 39.8416 77.9297C38.8816 77.9297 38.0216 77.743 37.2616 77.3697C36.5149 76.9963 35.9282 76.4563 35.5016 75.7497C35.0749 75.043 34.8616 74.1963 34.8616 73.2097ZM37.6816 73.2297C37.6816 73.683 37.7749 74.0963 37.9616 74.4697C38.1482 74.8297 38.4016 75.1163 38.7216 75.3297C39.0416 75.543 39.4016 75.6497 39.8016 75.6497C40.4549 75.6497 40.9749 75.423 41.3616 74.9697C41.7482 74.503 41.9416 73.923 41.9416 73.2297C41.9416 72.5363 41.7482 71.963 41.3616 71.5097C40.9749 71.043 40.4549 70.8097 39.8016 70.8097C39.4016 70.8097 39.0416 70.9163 38.7216 71.1297C38.4016 71.343 38.1482 71.6297 37.9616 71.9897C37.7749 72.3497 37.6816 72.763 37.6816 73.2297ZM46.4273 62.9697H56.3473V65.7697H52.7673V77.6897H49.8673V65.7697H46.4273V62.9697ZM60.9744 77.9297C59.9077 77.9297 59.001 77.7297 58.2544 77.3297C57.521 76.9297 56.961 76.3763 56.5744 75.6697C56.1877 74.963 55.9944 74.1497 55.9944 73.2297C55.9944 72.3497 56.221 71.5563 56.6744 70.8497C57.1277 70.143 57.7344 69.583 58.4944 69.1697C59.2544 68.743 60.101 68.5297 61.0344 68.5297C62.2877 68.5297 63.3144 68.8963 64.1144 69.6297C64.9277 70.3497 65.4544 71.3963 65.6944 72.7697L58.8944 74.9297L58.2744 73.4097L63.1944 71.7497L62.6144 72.0097C62.5077 71.663 62.3144 71.363 62.0344 71.1097C61.7677 70.843 61.361 70.7097 60.8144 70.7097C60.1877 70.7097 59.6877 70.923 59.3144 71.3497C58.941 71.7763 58.7544 72.3497 58.7544 73.0697C58.7544 73.883 58.9744 74.503 59.4144 74.9297C59.8544 75.343 60.3944 75.5497 61.0344 75.5497C61.341 75.5497 61.6344 75.4963 61.9144 75.3897C62.2077 75.283 62.4944 75.143 62.7744 74.9697L64.0144 77.0497C63.5477 77.3163 63.041 77.5297 62.4944 77.6897C61.961 77.8497 61.4544 77.9297 60.9744 77.9297ZM75.1491 76.9097C74.7624 77.2163 74.2757 77.463 73.6891 77.6497C73.1157 77.8363 72.5491 77.9297 71.9891 77.9297C70.9891 77.9297 70.1157 77.7497 69.3691 77.3897C68.6357 77.0163 68.0624 76.4897 67.6491 75.8097C67.2491 75.1163 67.0491 74.283 67.0491 73.3097C67.0491 72.3363 67.2691 71.5097 67.7091 70.8297C68.1491 70.1363 68.7224 69.6097 69.4291 69.2497C70.1491 68.8897 70.9024 68.7097 71.6891 68.7097C72.4757 68.7097 73.1557 68.8163 73.7291 69.0297C74.3157 69.243 74.8157 69.523 75.2291 69.8697L73.8691 71.6697C73.6824 71.523 73.4224 71.3763 73.0891 71.2297C72.7691 71.0697 72.3891 70.9897 71.9491 70.9897C71.5624 70.9897 71.2091 71.0897 70.8891 71.2897C70.5691 71.4897 70.3157 71.763 70.1291 72.1097C69.9424 72.4563 69.8491 72.8563 69.8491 73.3097C69.8491 73.7363 69.9491 74.1297 70.1491 74.4897C70.3491 74.8497 70.6224 75.1363 70.9691 75.3497C71.3291 75.5497 71.7491 75.6497 72.2291 75.6497C72.5357 75.6497 72.8157 75.6097 73.0691 75.5297C73.3357 75.4363 73.5624 75.3097 73.7491 75.1497L75.1491 76.9097ZM77.2994 77.6897V61.9097H80.0394V70.7097L80.0194 70.3697C80.326 69.823 80.7594 69.383 81.3194 69.0497C81.8794 68.703 82.566 68.5297 83.3794 68.5297C84.206 68.5297 84.8927 68.7763 85.4394 69.2697C85.9994 69.7497 86.286 70.3763 86.2994 71.1497V77.6897H83.4994V72.1897C83.486 71.803 83.3794 71.4963 83.1794 71.2697C82.9927 71.0297 82.6727 70.9097 82.2194 70.9097C81.566 70.9097 81.046 71.2163 80.6594 71.8297C80.286 72.4297 80.0994 73.1963 80.0994 74.1297V77.6897H77.2994Z" fill="url(#paint0_linear_2_950)"/>
<defs>
<linearGradient id="paint0_linear_2_950" x1="3.32769" y1="66.9732" x2="116.749" y2="85.3627" gradientUnits="userSpaceOnUse">
<stop stop-color="#63C700"/>
<stop offset="0.154167" stop-color="#6FD50A"/>
<stop offset="0.294792" stop-color="#6DCF0B"/>
<stop offset="0.419792" stop-color="#6ED209"/>
<stop offset="0.570833" stop-color="#6ED805"/>
<stop offset="0.70625" stop-color="#72DC09"/>
<stop offset="0.841667" stop-color="#75E00A"/>
<stop offset="0.95625" stop-color="#71DF03"/>
<stop offset="1" stop-color="#76E903"/>
</linearGradient>
</defs>
</svg>
